<?xml version="1.0" encoding="UTF-8"?>
<svg id="Layer_1" data-name="Layer 1" xmlns="http://www.w3.org/2000/svg" viewBox="0 0 453.54 556.77">
  <defs>
    <style>
      .cls-1 {
        stroke: #e45d0f;
      }

      .cls-1, .cls-2 {
        fill: none;
        stroke-miterlimit: 10;
        stroke-width: 8px;
      }

      .cls-2 {
        stroke: #12abb7;
      }
    </style>
  </defs>
  <g>
    <path d="M40.9,68.64c-1.63,0-3.21-.23-4.73-.68-1.52-.45-2.87-1.18-4.05-2.19s-2.08-2.36-2.76-4c-.68-1.63-1.01-3.66-1.01-6.08v-3.77h5.85v3.83c0,4.78,2.19,7.15,6.64,7.15h30.73v-18.18h6.42v23.97l-37.09-.06ZM51.59,33.36v6.58h-6.42v-6.58h6.42ZM61.1,33.36v6.58h-6.42v-6.58h6.42Z"/>
    <path d="M96.28,62.9c.28,0,.56.06.79.11.22.06.34.28.34.68v4.39c0,.39-.39.62-1.18.62h-11.48V28.46h6.42v34.44h5.12Z"/>
    <path d="M110.01,62.56c-.96-.96-1.8-2.31-2.53-4-.73-1.69-1.46-3.49-2.14-5.35-.68-1.86-1.41-3.66-2.2-5.4-.79-1.74-1.69-3.1-2.7-4.05v-1.01h22.29c3.32,0,5.85.9,7.65,2.76,1.8,1.86,2.7,4.33,2.7,7.43,0,1.58-.45,3.21-1.35,4.9-.9,1.69-2.14,3.26-3.71,4.78v.28h9.85c.28,0,.56.06.79.11.23.06.34.28.34.68v4.39c0,.39-.39.62-1.18.62h-41.48c-.79,0-1.18-.23-1.18-.62v-4.39c0-.39.11-.62.34-.68.23-.06.51-.11.79-.11h13.68l.06-.34ZM118.34,63.24c1.13,0,2.19-.34,3.15-1.07.96-.73,1.8-1.63,2.53-2.7.73-1.07,1.29-2.19,1.74-3.43.45-1.24.68-2.36.68-3.32,0-1.18-.39-2.2-1.24-2.98-.84-.79-1.97-1.18-3.38-1.18h-12.38c.39.39.79,1.01,1.18,1.91.39.9.79,1.86,1.18,2.93.39,1.07.84,2.19,1.29,3.38.45,1.18.96,2.25,1.46,3.21.51.96,1.07,1.74,1.69,2.36s1.29.9,2.03.9h.06ZM121.44,28.35v6.58h-6.42v-6.58h6.42Z"/>
    <path d="M158.08,68.75c-.84,0-1.63-.17-2.36-.51-.73-.34-1.41-.73-2.03-1.24s-1.18-1.07-1.63-1.69-.79-1.24-1.01-1.86c-.96,1.8-2.31,3.1-4,3.94-1.69.84-3.38,1.24-5.01,1.24h-4.28c-.79,0-1.18-.23-1.18-.62v-4.39c0-.39.11-.62.34-.67.23-.06.51-.11.79-.11h4.33c.39,0,.79-.06,1.24-.17.45-.11.9-.34,1.29-.68.39-.34.73-.79,1.01-1.35.28-.56.39-1.29.39-2.14v-30.05h6.42v28.08c0,.96.17,1.86.56,2.65.39.79.9,1.46,1.46,2.03.56.56,1.18.96,1.86,1.24.68.28,1.35.45,1.97.45h2.25c.28,0,.56.06.79.11.22.06.34.28.34.68v4.39c0,.39-.39.62-1.18.62h-2.25l-.11.06Z"/>
    <path d="M169.05,28.46h6.42v40.24h-14.97c-.79,0-1.18-.23-1.18-.62v-4.39c0-.39.11-.62.34-.68.23-.06.51-.11.79-.11h8.55l.06-34.44Z"/>
    <path d="M182.17,28.46h6.42v40.24h-6.42V28.46Z"/>
    <path d="M250.21,63.01c.28,0,.56.06.79.11.22.06.34.28.34.68v4.39c0,.39-.39.62-1.18.62h-1.91c-.56,0-1.18-.11-1.86-.28-.67-.17-1.29-.45-1.86-.84-.56-.39-1.07-.84-1.52-1.35s-.73-1.07-.84-1.69h-.22c-.28,2.87-.79,5.4-1.52,7.6-.73,2.19-1.8,4-3.21,5.46-1.41,1.46-3.21,2.59-5.4,3.32-2.2.73-4.84,1.13-7.99,1.13-3.77,0-6.81-.56-9.12-1.75-2.31-1.18-4.05-2.81-5.29-4.9-1.24-2.08-2.08-4.62-2.48-7.54-.39-2.93-.62-6.19-.62-9.74h5.85c0,3.38.28,6.25.79,8.55s1.24,4.22,2.19,5.68c.96,1.46,2.2,2.48,3.66,3.1,1.46.62,3.21.96,5.18.96s3.71-.34,5.23-.96c1.52-.62,2.76-1.69,3.77-3.15,1.01-1.46,1.8-3.38,2.31-5.68.51-2.31.79-5.18.79-8.55v-29.72h6.42v29.26c0,1.01.17,1.86.51,2.53.34.68.79,1.18,1.29,1.58.51.39,1.13.68,1.86.84s1.52.23,2.36.23h1.86l-.17.11Z"/>
    <path d="M274.58,68.75c-.84,0-1.63-.17-2.36-.51-.73-.34-1.41-.73-2.03-1.24s-1.18-1.07-1.63-1.69c-.45-.62-.79-1.24-1.01-1.86-.96,1.8-2.31,3.1-4,3.94-1.69.84-3.38,1.24-5.01,1.24h-8.1c-.79,0-1.18-.23-1.18-.62v-4.39c0-.39.11-.62.34-.67.23-.06.51-.11.79-.11h8.16c.39,0,.79-.06,1.24-.17.45-.11.9-.34,1.29-.68.39-.34.73-.79,1.01-1.35.28-.56.39-1.29.39-2.14v-13.79h6.42v11.82c0,.96.17,1.86.56,2.65.39.79.9,1.46,1.46,2.03.56.56,1.18.96,1.86,1.24.68.28,1.35.45,1.97.45h2.42c.28,0,.56.06.79.11.23.06.34.28.34.68v4.39c0,.39-.39.62-1.18.62h-2.42l-.11.06ZM268.96,74.04v6.58h-6.42v-6.58h6.42Z"/>
    <path d="M277.57,68.81c-.79,0-1.18-.23-1.18-.62v-4.39c0-.39.11-.62.34-.68.22-.06.51-.11.79-.11h6.7v-.22c-.34-.17-.73-.51-1.18-1.01-.45-.51-.84-1.13-1.18-1.86-.34-.73-.62-1.52-.9-2.36-.28-.84-.39-1.69-.39-2.53,0-2.25.34-4.22,1.01-5.91.67-1.69,1.63-3.15,2.87-4.33s2.7-2.08,4.39-2.7c1.69-.62,3.55-.9,5.57-.9s3.88.28,5.57.9,3.15,1.52,4.39,2.7c1.24,1.18,2.19,2.64,2.87,4.33.68,1.69,1.01,3.66,1.01,5.91,0,.84-.11,1.69-.39,2.53-.28.84-.56,1.63-.9,2.36-.34.73-.73,1.35-1.18,1.86-.45.51-.84.84-1.18,1.01v.22h7.15c.28,0,.56.06.79.11s.34.28.34.68v4.39c0,.39-.39.62-1.18.62h-34.55.45ZM292.82,28.46v6.58h-6.42v-6.58h6.42ZM294.17,46.75c-2.42,0-4.28.73-5.52,2.25-1.24,1.52-1.86,3.49-1.86,5.97s.62,4.45,1.86,5.97c1.24,1.52,3.1,2.25,5.52,2.25s4.28-.73,5.51-2.25c1.24-1.52,1.86-3.49,1.86-5.97s-.62-4.5-1.86-6.02c-1.24-1.52-3.09-2.31-5.51-2.31v.11ZM302.33,28.46v6.58h-6.42v-6.58h6.42Z"/>
    <path d="M335.88,68.75c-.84,0-1.63-.17-2.36-.51-.73-.34-1.41-.73-2.03-1.24s-1.18-1.07-1.63-1.69c-.45-.62-.79-1.24-1.01-1.86-.96,1.8-2.31,3.1-4,3.94-1.69.84-3.38,1.24-5.01,1.24h-8.1c-.79,0-1.18-.23-1.18-.62v-4.39c0-.39.11-.62.34-.67.23-.06.51-.11.79-.11h8.16c.39,0,.79-.06,1.24-.17.45-.11.9-.34,1.29-.68.39-.34.73-.79,1.01-1.35.28-.56.39-1.29.39-2.14v-13.79h6.42v11.82c0,.96.17,1.86.56,2.65.39.79.9,1.46,1.46,2.03.56.56,1.18.96,1.86,1.24.68.28,1.35.45,1.97.45h2.42c.28,0,.56.06.79.11.23.06.34.28.34.68v4.39c0,.39-.39.62-1.18.62h-2.42l-.11.06ZM325.24,28.46v6.58h-6.42v-6.58h6.42ZM334.75,28.46v6.58h-6.42v-6.58h6.42Z"/>
    <path d="M357.6,63.24c.68,0,1.29-.06,1.91-.17.62-.11,1.13-.34,1.58-.68.45-.34.84-.79,1.13-1.35.28-.56.45-1.29.45-2.14v-12.83h6.42v12.83c0,1.69.51,2.81,1.58,3.43s2.42.9,4.11.9c1.46,0,2.7-.34,3.71-.96,1.01-.62,1.52-1.8,1.52-3.49v-14.01h6.42v13.84c0,.84.11,1.52.39,2.08.28.56.62,1.01,1.01,1.35.39.34.84.56,1.29.68.45.11.9.17,1.29.17h3.49c.28,0,.56.06.79.11.23.06.34.28.34.68v4.39c0,.39-.39.62-1.18.62h-3.49c-.45,0-.96-.06-1.46-.17s-1.01-.28-1.52-.56c-.51-.28-.96-.62-1.35-1.01-.39-.39-.68-.9-.84-1.46h-.23c-.73,1.13-1.8,1.97-3.15,2.53-1.35.56-3.15.84-5.46.84s-4.16-.28-5.57-.84c-1.41-.56-2.36-1.41-2.81-2.53h-.23c-.73,1.13-1.74,1.97-3.1,2.53-1.35.56-3.1.84-5.29.84-1.91,0-3.6-.28-5.06-.79-1.46-.51-2.42-1.29-2.93-2.36h-.22c-1.18,1.97-3.15,2.98-5.97,2.98h-6.75c-.79,0-1.18-.23-1.18-.62v-4.39c0-.39.11-.62.34-.68.23-.06.51-.11.79-.11h3.77c.39,0,.79-.06,1.24-.17.45-.11.9-.34,1.29-.68.39-.34.73-.79,1.01-1.35.28-.56.39-1.29.39-2.14v-11.54h6.42v11.76c0,.84.17,1.58.45,2.14.28.56.68,1.01,1.13,1.35.45.34,1.01.56,1.63.68.62.11,1.29.17,2.03.17l-.11.11Z"/>
    <path d="M394.41,68.7c-.79,0-1.18-.23-1.18-.62v-4.39c0-.39.11-.62.34-.68.22-.06.51-.11.79-.11h6.81v-.23c-.34-.17-.73-.51-1.18-1.01s-.84-1.13-1.18-1.86c-.34-.73-.62-1.52-.9-2.36-.28-.84-.39-1.69-.39-2.53,0-2.25.34-4.22,1.01-5.91.68-1.69,1.63-3.15,2.87-4.33s2.7-2.08,4.39-2.7c1.69-.62,3.55-.9,5.57-.9s3.88.28,5.57.84c1.69.56,3.15,1.41,4.39,2.59,1.24,1.18,2.2,2.65,2.87,4.39.68,1.74,1.01,3.77,1.01,6.08s-.34,4.33-1.01,6.08c-.68,1.74-1.63,3.15-2.87,4.28-1.24,1.13-2.7,1.97-4.45,2.53-1.74.56-3.66.84-5.74.84h-17.16.45ZM411.58,46.75c-2.42,0-4.28.73-5.52,2.25-1.24,1.52-1.86,3.49-1.86,5.97s.62,4.45,1.86,5.97c1.24,1.52,3.1,2.25,5.52,2.25s4.28-.73,5.51-2.25c1.24-1.52,1.86-3.49,1.86-5.97s-.62-4.5-1.86-6.02c-1.24-1.52-3.09-2.31-5.51-2.31v.11Z"/>
  </g>
  <g>
    <path d="M59.22,512.27v3.84c0,1.48-.72,2.22-2.16,2.22h-12.21c-1.55,0-2.86-.21-3.94-.62-1.08-.41-1.97-1-2.67-1.76-.7-.76-1.22-1.66-1.54-2.7-.32-1.04-.49-2.18-.49-3.4v-25.34c0-1.44.7-2.16,2.11-2.16h3.94v26.48c0,1.26.27,2.15.81,2.67.54.52,1.37.78,2.49.78h13.67Z"/>
    <path d="M72.13,494.38c1.4,0,2.72.13,3.94.41,1.22.27,2.31.72,3.24,1.35.94.63,1.68,1.47,2.24,2.51.56,1.05.84,2.36.84,3.94v13.89c-.86.54-1.78,1-2.76,1.38-.97.38-2.09.7-3.35.97-1.26.27-2.67.41-4.21.41-1.8,0-3.3-.16-4.48-.49-1.19-.32-2.22-.79-3.11-1.4-.88-.61-1.59-1.44-2.13-2.49-.54-1.04-.81-2.32-.81-3.84,0-2.34.76-4.09,2.27-5.24,1.51-1.15,3.63-1.88,6.35-2.19,2.72-.31,4.84-.53,6.35-.68v-.81c0-.47-.32-.91-.95-1.32-.63-.41-1.77-.62-3.43-.62-1.4.04-2.63.14-3.67.32-1.05.18-1.91.4-2.59.65-.86.29-1.49.26-1.89-.08-.4-.34-.59-.87-.59-1.59v-3.57c.79-.25,1.6-.48,2.43-.68.83-.2,1.74-.38,2.73-.54.99-.16,2.19-.26,3.59-.3ZM76.45,507.95c-1.51.14-3.03.26-4.57.35-1.53.09-2.73.39-3.59.89-.86.5-1.28,1.21-1.24,2.11,0,.76.4,1.4,1.19,1.92.79.52,2.12.78,3.97.78s3.27-.16,4.24-.49v-5.57Z"/>
    <path d="M99.69,494.76c2.99,0,5.3.67,6.92,2,1.62,1.33,2.43,3.55,2.43,6.65v12.7c0,1.48-.68,2.22-2.05,2.22h-4v-15.29c0-.68-.11-1.22-.32-1.62-.22-.4-.51-.7-.89-.92-.38-.22-.81-.36-1.3-.43-.49-.07-1.02-.11-1.59-.11-.68,0-1.47.08-2.35.24-.88.16-1.65.33-2.3.51v15.4c0,1.48-.74,2.22-2.22,2.22h-3.84v-20.59c.97-.54,2.02-1.02,3.13-1.43,1.12-.41,2.37-.77,3.76-1.08,1.39-.31,2.93-.46,4.62-.46Z"/>
    <path d="M125.57,494.38c1.37,0,2.68.15,3.94.46,1.26.31,2.44.67,3.54,1.08,1.1.41,2.15.91,3.16,1.49v20.05c0,3.82-.97,6.6-2.92,8.35-1.95,1.75-4.86,2.62-8.75,2.62-.68,0-1.57-.06-2.65-.19-1.08-.13-2.02-.33-2.81-.62-1.26-.4-1.73-1.28-1.4-2.65l.81-3.57c.61.22,1.22.41,1.84.57.61.16,1.3.29,2.05.38.76.09,1.49.14,2.22.14,1.22,0,2.21-.13,2.94-.38.74-.25,1.31-.58,1.7-.97.4-.4.65-.86.76-1.4.11-.54.16-1.12.16-1.73v-.22c-.54.14-1.2.26-1.97.35-.78.09-1.63.13-2.57.13-1.19,0-2.46-.13-3.81-.4-1.35-.27-2.59-.83-3.73-1.68-1.13-.85-2.08-2.04-2.84-3.59-.76-1.55-1.13-3.62-1.13-6.21,0-.83.13-1.92.38-3.27.25-1.35.78-2.67,1.59-3.97.81-1.3,1.97-2.41,3.49-3.35,1.51-.94,3.51-1.4,6-1.4ZM125.89,512.81c.94,0,1.76-.05,2.46-.16.7-.11,1.31-.25,1.81-.43v-11.83c-1.12-.4-2.41-.59-3.89-.59-2.09,0-3.6.5-4.54,1.49-.94.99-1.4,2.67-1.4,5.05,0,1.95.4,3.51,1.19,4.7.79,1.19,2.25,1.78,4.38,1.78Z"/>
    <path d="M151.56,518.64c-1.87,0-3.44-.28-4.7-.84-1.26-.56-2.29-1.27-3.08-2.13-.79-.86-1.35-1.83-1.67-2.89-.32-1.06-.49-2.12-.49-3.16v-12.64c0-1.48.74-2.22,2.22-2.22h3.84v14.97c0,.94.35,1.69,1.05,2.27.7.58,1.65.86,2.84.86,1.04,0,1.95-.05,2.73-.16.77-.11,1.49-.31,2.13-.59v-15.13c0-1.48.77-2.22,2.32-2.22h3.73v20.91c-.83.58-1.77,1.07-2.81,1.49-1.05.41-2.24.77-3.59,1.05-1.35.29-2.86.43-4.51.43Z"/>
    <path d="M176.63,494.38c1.4,0,2.72.13,3.94.41,1.22.27,2.31.72,3.24,1.35.94.63,1.68,1.47,2.24,2.51.56,1.05.84,2.36.84,3.94v13.89c-.86.54-1.78,1-2.76,1.38-.97.38-2.09.7-3.35.97-1.26.27-2.67.41-4.21.41-1.8,0-3.3-.16-4.48-.49-1.19-.32-2.22-.79-3.11-1.4-.88-.61-1.59-1.44-2.13-2.49-.54-1.04-.81-2.32-.81-3.84,0-2.34.76-4.09,2.27-5.24,1.51-1.15,3.63-1.88,6.35-2.19,2.72-.31,4.84-.53,6.35-.68v-.81c0-.47-.32-.91-.95-1.32-.63-.41-1.77-.62-3.43-.62-1.4.04-2.63.14-3.67.32-1.05.18-1.91.4-2.59.65-.86.29-1.49.26-1.89-.08-.4-.34-.59-.87-.59-1.59v-3.57c.79-.25,1.6-.48,2.43-.68.83-.2,1.74-.38,2.73-.54.99-.16,2.19-.26,3.59-.3ZM180.95,507.95c-1.51.14-3.03.26-4.57.35-1.53.09-2.73.39-3.59.89-.86.5-1.28,1.21-1.24,2.11,0,.76.4,1.4,1.19,1.92.79.52,2.12.78,3.97.78s3.27-.16,4.24-.49v-5.57Z"/>
    <path d="M201.43,494.38c1.37,0,2.68.15,3.94.46,1.26.31,2.44.67,3.54,1.08,1.1.41,2.15.91,3.16,1.49v20.05c0,3.82-.97,6.6-2.92,8.35-1.95,1.75-4.86,2.62-8.75,2.62-.68,0-1.57-.06-2.65-.19-1.08-.13-2.02-.33-2.81-.62-1.26-.4-1.73-1.28-1.4-2.65l.81-3.57c.61.22,1.22.41,1.84.57.61.16,1.3.29,2.05.38.76.09,1.49.14,2.22.14,1.22,0,2.21-.13,2.94-.38.74-.25,1.31-.58,1.7-.97.4-.4.65-.86.76-1.4.11-.54.16-1.12.16-1.73v-.22c-.54.14-1.2.26-1.97.35-.78.09-1.63.13-2.57.13-1.19,0-2.46-.13-3.81-.4-1.35-.27-2.59-.83-3.73-1.68-1.13-.85-2.08-2.04-2.84-3.59-.76-1.55-1.13-3.62-1.13-6.21,0-.83.13-1.92.38-3.27.25-1.35.78-2.67,1.59-3.97.81-1.3,1.97-2.41,3.49-3.35,1.51-.94,3.51-1.4,6-1.4ZM201.75,512.81c.94,0,1.76-.05,2.46-.16.7-.11,1.31-.25,1.81-.43v-11.83c-1.12-.4-2.41-.59-3.89-.59-2.09,0-3.6.5-4.54,1.49-.94.99-1.4,2.67-1.4,5.05,0,1.95.4,3.51,1.19,4.7.79,1.19,2.25,1.78,4.38,1.78Z"/>
    <path d="M235.9,502.65c0,1.4-.21,2.58-.62,3.51-.41.94-.98,1.66-1.7,2.16-.72.5-1.59.86-2.59,1.08-1.01.22-2.13.32-3.35.32h-6.32c.29,1.37.94,2.32,1.94,2.84,1.01.52,2.18.78,3.51.78,1.15,0,2.07-.11,2.76-.32.68-.22,1.49-.5,2.43-.86.72-.22,1.27-.17,1.65.13.38.31.57.8.57,1.49v3.19c-.76.32-1.52.6-2.3.84-.77.23-1.61.43-2.51.59-.9.16-1.82.24-2.76.24-1.05,0-2.22-.13-3.54-.4-1.32-.27-2.56-.8-3.73-1.59-1.17-.79-2.16-1.93-2.97-3.4-.81-1.48-1.22-3.48-1.22-6,0-3.06.41-5.41,1.24-7.05.83-1.64,1.83-2.89,3-3.76,1.17-.86,2.39-1.42,3.67-1.68,1.28-.25,2.37-.38,3.27-.38.97,0,2.02.14,3.13.43,1.12.29,2.15.76,3.11,1.4.95.65,1.75,1.5,2.38,2.57.63,1.06.95,2.35.95,3.86ZM226.12,504.65c1.69,0,2.86-.12,3.51-.35.65-.23.97-.73.97-1.49,0-1.08-.39-1.92-1.16-2.51-.78-.59-1.79-.89-3.05-.89-.9,0-1.67.14-2.32.43-.65.29-1.19.68-1.62,1.16s-.77,1.01-1.03,1.57c-.25.56-.43,1.25-.54,2.08h5.24Z"/>
    <path d="M258.54,496.11c-.14,1.12-.31,2.11-.49,2.97-.4,1.44-1.3,1.96-2.7,1.57-.47-.14-1.15-.3-2.05-.46-.9-.16-1.98-.24-3.24-.24-.94,0-1.67.06-2.19.19-.52.13-.91.27-1.16.43-.25.16-.41.35-.46.57-.05.22-.08.43-.08.65,0,.51.34.86,1.03,1.05.68.2,1.67.38,2.97.54,1.3.16,2.51.33,3.65.51,1.13.18,2.12.54,2.97,1.08.85.54,1.5,1.29,1.97,2.24.47.95.7,2.21.7,3.76,0,1.4-.32,2.6-.95,3.59-.63.99-1.46,1.78-2.49,2.38-1.03.59-2.18,1.03-3.46,1.3-1.28.27-2.55.4-3.81.4-1.12,0-2.16-.06-3.13-.19-.97-.13-1.87-.29-2.7-.49-.83-.2-1.62-.44-2.38-.73v-3.19c0-1.69.76-2.32,2.27-1.89.61.18,1.43.35,2.46.51,1.03.16,2.22.24,3.59.24,1.91-.04,3.17-.22,3.78-.54.61-.32.92-.77.92-1.35,0-.47-.12-.84-.35-1.11-.23-.27-.54-.47-.92-.59-.38-.13-.8-.2-1.27-.22-.47-.02-1.09-.06-1.86-.13-.78-.07-1.72-.22-2.84-.43-1.12-.22-2.13-.59-3.03-1.11-.9-.52-1.63-1.22-2.19-2.08-.56-.86-.84-1.98-.84-3.35,0-1.3.3-2.41.89-3.35.59-.94,1.37-1.71,2.32-2.32.95-.61,2.03-1.06,3.21-1.35,1.19-.29,2.38-.43,3.57-.43,1.12,0,2.18.08,3.19.24,1.01.16,1.93.35,2.76.57.83.22,1.6.47,2.32.76Z"/>
    <path d="M284.8,488.39v7.94h12.43v4c0,1.37-.76,2.05-2.27,2.05h-10.16v13.72c0,1.48-.63,2.22-1.89,2.22h-4.16v-30.04c0-3.96,2.02-5.94,6.05-5.94h17.56v3.78c0,1.51-.76,2.27-2.27,2.27h-15.29Z"/>
    <path d="M316.35,518.64c-1.87,0-3.44-.28-4.7-.84-1.26-.56-2.29-1.27-3.08-2.13-.79-.86-1.35-1.83-1.67-2.89-.32-1.06-.49-2.12-.49-3.16v-12.64c0-1.48.74-2.22,2.22-2.22h3.84v14.97c0,.94.35,1.69,1.05,2.27.7.58,1.65.86,2.84.86,1.04,0,1.95-.05,2.73-.16.77-.11,1.49-.31,2.13-.59v-15.13c0-1.48.77-2.22,2.32-2.22h3.73v20.91c-.83.58-1.77,1.07-2.81,1.49-1.05.41-2.24.77-3.59,1.05-1.35.29-2.86.43-4.51.43Z"/>
    <path d="M338.83,500.65v10.43c0,.76.22,1.27.65,1.54.43.27,1.17.41,2.22.41.4,0,.78-.03,1.16-.08.38-.05.87-.14,1.49-.24.76-.14,1.29-.06,1.59.24.31.31.46.84.46,1.59v2.76c-.36.29-1.06.59-2.11.89-1.05.31-2.25.46-3.62.46-.86,0-1.77-.13-2.73-.38-.95-.25-1.81-.67-2.57-1.24-.76-.58-1.38-1.32-1.86-2.24-.49-.92-.73-2.04-.73-3.38v-23.29l3.67-.86c.18-.04.4-.07.68-.11.27-.04.53,0,.78.08.25.09.47.27.65.54.18.27.27.71.27,1.32v5.67h6.65v3.62c0,1.51-.7,2.27-2.11,2.27h-4.54Z"/>
    <path d="M360.5,518.64c-1.87,0-3.44-.28-4.7-.84-1.26-.56-2.29-1.27-3.08-2.13-.79-.86-1.35-1.83-1.67-2.89-.32-1.06-.49-2.12-.49-3.16v-12.64c0-1.48.74-2.22,2.22-2.22h3.84v14.97c0,.94.35,1.69,1.05,2.27.7.58,1.65.86,2.84.86,1.04,0,1.95-.05,2.73-.16.77-.11,1.49-.31,2.13-.59v-15.13c0-1.48.77-2.22,2.32-2.22h3.73v20.91c-.83.58-1.77,1.07-2.81,1.49-1.05.41-2.24.77-3.59,1.05-1.35.29-2.86.43-4.51.43Z"/>
    <path d="M376.65,502.11c0-.79.2-1.62.59-2.49.4-.86,1-1.66,1.81-2.38.81-.72,1.84-1.31,3.08-1.78,1.24-.47,2.71-.7,4.4-.7,1.01,0,1.99.06,2.94.19.95.13,1.78.32,2.49.57.7.25,1.3.55,1.78.89.49.34.65.87.49,1.59-.16.72-.32,1.31-.46,1.76-.14.45-.36,1.07-.65,1.86-.61-.14-1.22-.28-1.84-.41-.61-.13-1.3-.23-2.05-.32-.76-.09-1.57-.13-2.43-.13s-1.5.06-2.03.19c-.52.13-.94.3-1.24.51-.31.22-.52.45-.65.7-.13.25-.19.49-.19.7v13.24c0,1.48-.76,2.22-2.27,2.22h-3.78v-16.21Z"/>
    <path d="M416.91,502.65c0,1.4-.21,2.58-.62,3.51-.41.94-.98,1.66-1.7,2.16-.72.5-1.59.86-2.59,1.08-1.01.22-2.13.32-3.35.32h-6.32c.29,1.37.94,2.32,1.94,2.84,1.01.52,2.18.78,3.51.78,1.15,0,2.07-.11,2.76-.32.68-.22,1.49-.5,2.43-.86.72-.22,1.27-.17,1.65.13.38.31.57.8.57,1.49v3.19c-.76.32-1.52.6-2.3.84-.77.23-1.61.43-2.51.59-.9.16-1.82.24-2.76.24-1.05,0-2.22-.13-3.54-.4-1.32-.27-2.56-.8-3.73-1.59-1.17-.79-2.16-1.93-2.97-3.4-.81-1.48-1.22-3.48-1.22-6,0-3.06.41-5.41,1.24-7.05.83-1.64,1.83-2.89,3-3.76,1.17-.86,2.39-1.42,3.67-1.68,1.28-.25,2.37-.38,3.27-.38.97,0,2.02.14,3.13.43,1.12.29,2.15.76,3.11,1.4.95.65,1.75,1.5,2.38,2.57.63,1.06.95,2.35.95,3.86ZM407.13,504.65c1.69,0,2.86-.12,3.51-.35.65-.23.97-.73.97-1.49,0-1.08-.39-1.92-1.16-2.51-.78-.59-1.79-.89-3.05-.89-.9,0-1.67.14-2.32.43-.65.29-1.19.68-1.62,1.16-.43.49-.77,1.01-1.03,1.57-.25.56-.43,1.25-.54,2.08h5.24Z"/>
  </g>
  <g>
    <rect class="cls-2" x="259.38" y="117.65" width="64.94" height="64.94"/>
    <rect class="cls-1" x="194.44" y="117.65" width="64.94" height="64.94"/>
    <rect class="cls-1" x="129.51" y="117.65" width="64.94" height="64.94"/>
    <path class="cls-1" d="M71.07,117.65h58.44v64.94h-64.94v-58.44c0-3.58,2.91-6.49,6.49-6.49Z"/>
    <rect class="cls-1" x="64.57" y="182.58" width="64.94" height="64.94"/>
    <rect class="cls-1" x="64.57" y="247.52" width="64.94" height="64.94"/>
    <rect class="cls-1" x="129.51" y="247.52" width="64.94" height="64.94"/>
    <rect class="cls-1" x="194.44" y="247.52" width="64.94" height="64.94"/>
    <rect class="cls-2" x="194.44" y="182.58" width="64.94" height="64.94"/>
    <rect class="cls-2" x="194.44" y="312.46" width="64.94" height="64.94"/>
    <path class="cls-2" d="M194.44,377.39h64.94v64.94h-58.44c-3.58,0-6.49-2.91-6.49-6.49v-58.44h0Z"/>
    <rect class="cls-2" x="259.38" y="377.39" width="64.94" height="64.94"/>
    <rect class="cls-2" x="259.38" y="247.52" width="64.94" height="64.94"/>
    <path class="cls-2" d="M324.32,117.65h58.44c3.58,0,6.49,2.91,6.49,6.49v51.95c0,3.58-2.91,6.49-6.49,6.49h-58.44v-64.94h0Z"/>
    <path class="cls-2" d="M324.32,377.39h58.44c3.58,0,6.49,2.91,6.49,6.49v51.95c0,3.58-2.91,6.49-6.49,6.49h-58.44v-64.94h0Z"/>
    <path class="cls-2" d="M324.32,247.52h58.44c3.58,0,6.49,2.91,6.49,6.49v51.95c0,3.58-2.91,6.49-6.49,6.49h-58.44v-64.94h0Z"/>
    <rect class="cls-1" x="64.57" y="312.46" width="64.94" height="64.94"/>
    <path class="cls-1" d="M64.57,377.39h64.94v64.94h-58.44c-3.58,0-6.49-2.91-6.49-6.49v-58.44h0Z"/>
  </g>
</svg>